<svg width="66" height="24" viewBox="0 0 66 24" fill="none" xmlns="http://www.w3.org/2000/svg">
<path d="M17.1239 16.2177H4.21471C4.5355 19.2026 6.68832 20.9868 9.03245 20.9868C10.7988 20.9868 12.5979 20.4676 13.7207 18.1972L16.7064 18.8453C15.3904 22.2187 12.5631 23.9054 9.03052 23.9054C4.6959 23.9073 0.90625 20.5339 0.90625 15.4407C0.90625 10.3143 4.66305 6.90771 9.16 6.90771C13.4308 6.90771 16.9635 10.2167 17.1239 15.0503V16.2177ZM4.31133 13.8184H13.6898C13.1758 11.1908 11.3457 9.8926 9.16193 9.8926C7.07289 9.8926 4.82345 11.222 4.31133 13.8184Z" fill="white"/>
<path d="M36.4899 23.4526H33.1177V21.6351C31.7051 23.0622 29.7455 23.9055 27.3376 23.9055C23.1943 23.9055 19.4375 20.4989 19.4375 15.4057C19.4375 10.3456 23.1943 6.90589 27.3376 6.90589C29.7455 6.90589 31.7051 7.74923 33.1177 9.20947V0.0947266H36.4899V23.4526ZM33.1177 15.4076C33.1177 12.0343 30.5475 9.89273 27.8826 9.89273C24.9915 9.89273 22.7112 12.0343 22.7112 15.4076C22.7112 18.8142 24.9915 20.9226 27.8826 20.9226C30.5475 20.9226 33.1177 18.8142 33.1177 15.4076Z" fill="white"/>
<path d="M45.5843 2.20308C45.5843 3.40368 44.6857 4.28021 43.4644 4.28021C42.2121 4.28021 41.3135 3.40368 41.3135 2.20308C41.3135 1.06691 42.2121 0.0947266 43.4644 0.0947266C44.6857 0.0947266 45.5843 1.06887 45.5843 2.20308Z" fill="white"/>
<path d="M45.1187 7.23389H41.7793V23.4546H45.1187V7.23389Z" fill="white"/>
<path d="M49.252 7.23389H53.1073L65.3092 23.4526H61.4557L49.252 7.23389Z" fill="white"/>
<path d="M62.0976 11.7747L65.3094 7.23389H58.8877L62.0976 11.7747Z" fill="white"/>
<path d="M55.6756 23.4529H49.252L52.4638 18.9121L55.6756 23.4529Z" fill="white"/>
</svg>
